<svg xmlns="http://www.w3.org/2000/svg" width="31.829" height="22" viewBox="0 0 31.829 22">
  <path id="american-express-alt" d="M26.949,154.4H4.879A4.892,4.892,0,0,0,0,159.276v12.245A4.894,4.894,0,0,0,4.879,176.4h22.07a4.894,4.894,0,0,0,4.879-4.879V159.276A4.892,4.892,0,0,0,26.949,154.4Zm-14.867,7.849a.841.841,0,0,1,.089-.006c.493,0,.987,0,1.48,0a.579.579,0,0,1,.576.42.661.661,0,0,1-.286.78l-.067.029a.484.484,0,0,1,.347.455c0,.172.025.344.038.519,0,.035,0,.07,0,.111h-.576c-.01-.083-.019-.169-.025-.255-.01-.1-.01-.2-.022-.306a.277.277,0,0,0-.245-.226c-.236,0-.471,0-.719,0v.789h-.6c.006-.767.006-1.534.006-2.311Zm-7.515-.006c.242,0,.484,0,.729,0a.1.1,0,0,1,.073.054c.188.417.376.837.56,1.257.124.277.245.557.382.834v-2.148h.6c.325,0,.321,0,.452.3.14.321.29.64.436.958l.115.261c.232-.519.452-1.015.675-1.518h.945v2.311H8.944v-1.6l-.019-.006c-.13.283-.264.567-.395.853l-.331.716a.107.107,0,0,1-.08.045c-.105.006-.207,0-.312,0-.175,0-.169,0-.239-.159-.207-.465-.417-.926-.627-1.391a.411.411,0,0,0-.041-.06v1.611H6.3c-.162,0-.321,0-.484,0-.073,0-.1-.029-.124-.089-.048-.124-.1-.248-.156-.369a.121.121,0,0,0-.092-.057c-.328,0-.659,0-.99,0a.121.121,0,0,0-.092.057c-.073.15-.134.3-.2.452H3.53c.347-.78.691-1.544,1.038-2.317Zm5.191,5.108a.547.547,0,0,1-.519.388c-.331.016-.662,0-1.009,0v.818H7.862c-.2,0-.4-.01-.6,0a.31.31,0,0,1-.274-.146c-.172-.2-.35-.407-.528-.621-.083.089-.162.165-.236.251-.127.146-.251.3-.382.442a.146.146,0,0,1-.1.048c-.7,0-1.4,0-2.094,0a.257.257,0,0,1-.029-.006v-2.311h.118c.656,0,1.311.006,1.967-.006a.373.373,0,0,1,.312.166c.153.175.306.353.465.538.2-.216.391-.42.579-.627a.211.211,0,0,1,.169-.07c.659,0,1.318,0,1.977,0a.6.6,0,0,1,.627.582A1.32,1.32,0,0,1,9.759,167.351Zm.13-5.1h1.878v.509H10.491v.407h1.235v.474H10.494v.43H11.77v.487H9.889Zm2.327,5.541a1.36,1.36,0,0,1,.032.251c0,.169,0,.337,0,.516h-.56c-.006-.105-.013-.213-.022-.321-.006-.089-.01-.175-.022-.264a.277.277,0,0,0-.245-.226c-.236,0-.471,0-.723,0v.812h-.592v-2.33a.774.774,0,0,1,.089-.006c.493,0,.987-.006,1.48,0a.568.568,0,0,1,.579.43.715.715,0,0,1-.271.786.221.221,0,0,0-.045.048.389.389,0,0,1,.3.3Zm2.2-1.06h-1.3v.411h1.254v.452H13.117v.452h1.3v.49H12.54v-2.308h1.878C14.415,166.393,14.415,166.555,14.415,166.73Zm.115-4.482h.589v2.308H14.53Zm1.992,5.952a.612.612,0,0,1-.5.334c-.446.022-.891.019-1.337.025a.1.1,0,0,1-.029-.01v-.5h.169c.255,0,.509,0,.764,0a1.038,1.038,0,0,0,.22-.029.226.226,0,0,0,.178-.207c-.01-.1-.105-.162-.232-.172a5.159,5.159,0,0,1-.672-.067.54.54,0,0,1-.468-.582.827.827,0,0,1,.076-.452.547.547,0,0,1,.474-.306c.436-.016.872,0,1.308,0,.006,0,.013.006.022.01v.5H15.418c-.15,0-.239.1-.2.229s.146.124.242.134c.156.016.312.006.468.025a1.7,1.7,0,0,1,.376.092.452.452,0,0,1,.277.36.836.836,0,0,1-.057.617Zm2.107.038a.6.6,0,0,1-.5.3c-.436.01-.869,0-1.315,0v-.493h.111c.321-.006.64-.013.961-.022a.229.229,0,0,0,.2-.118c.076-.131-.025-.258-.2-.271a5.978,5.978,0,0,1-.675-.067.566.566,0,0,1-.477-.6.79.79,0,0,1,.127-.512.552.552,0,0,1,.436-.239c.436-.013.872,0,1.324,0v.516H17.544a.181.181,0,0,0-.2.156.155.155,0,0,0,.108.175.5.5,0,0,0,.153.032c.2.016.4.016.592.048a.531.531,0,0,1,.525.506.831.831,0,0,1-.092.589Zm2.919-3.654h-.4a.991.991,0,0,0-.194,0c-.156.029-.232-.048-.306-.175-.286-.487-.582-.968-.894-1.477v1.649H19.6c-.306,0-.608,0-.913,0a.113.113,0,0,1-.121-.076c-.057-.127-.115-.258-.175-.382a.118.118,0,0,0-.083-.057c-.353,0-.71,0-1.066,0-.057.146-.118.286-.172.43a.118.118,0,0,1-.13.089c-.2-.01-.4,0-.6,0a.872.872,0,0,1-.929-.748,1.723,1.723,0,0,1,.067-1.06.791.791,0,0,1,.761-.535c.239.01.481,0,.729,0v.516h-.436a.571.571,0,0,0-.493.242.828.828,0,0,0,.076.891.59.59,0,0,0,.506.131c.019,0,.045-.041.054-.067.127-.286.251-.57.376-.856l.341-.793a.545.545,0,0,0,.022-.067c.242,0,.484,0,.726,0a.11.11,0,0,1,.076.061c.166.36.328.723.49,1.082.14.312.277.627.433.939v-2.085c.2,0,.388.016.576,0a.415.415,0,0,1,.468.264c.229.433.5.847.761,1.289v-1.54h.6c0,.773,0,1.544,0,2.333Zm-4.09-1.038h.726c-.127-.277-.251-.544-.388-.84C17.674,163.006,17.569,163.274,17.458,163.548ZM5.411,166.715c-.29,0-.579,0-.869,0H4.176v.455H5.43v.407H4.176v.493c.427,0,.847,0,1.264,0a.166.166,0,0,0,.105-.057c.191-.216.382-.439.576-.662-.2-.2-.391-.395-.592-.589a.182.182,0,0,0-.118-.041Zm1.458.576c-.041.045-.038.07,0,.115l.56.662c.073.086.153.169.242.271v-1.926c-.045.041-.073.06-.1.086l-.707.792Zm2.209-.554c-.286-.01-.573,0-.863,0v.538c.286,0,.563.006.84,0,.115,0,.21-.146.207-.271S9.2,166.74,9.078,166.737Zm-4.131-4.029c-.13.3-.242.563-.363.84h.726C5.188,163.271,5.07,163,4.946,162.707Zm6.522,4.01c-.267-.01-.535,0-.805,0v.538c.261,0,.516.006.767,0a.237.237,0,0,0,.258-.255.252.252,0,0,0-.22-.277Zm2.222-3.727a.275.275,0,0,0-.293-.255c-.086.006-.172,0-.258,0h-.481v.538c.261,0,.512.006.761,0A.245.245,0,0,0,13.69,162.991Z" transform="translate(0 -154.4)" fill="#343f4c"/>
</svg>
