<svg xmlns="http://www.w3.org/2000/svg" width="31.829" height="22" viewBox="0 0 31.829 22">
  <path id="apple-pay-alt" d="M26.949,154.4H4.879A4.892,4.892,0,0,0,0,159.276v12.245A4.894,4.894,0,0,0,4.879,176.4h22.07a4.894,4.894,0,0,0,4.879-4.879V159.276A4.892,4.892,0,0,0,26.949,154.4Zm-16.494,6.484c.127.742-.624,1.757-1.41,1.639A1.539,1.539,0,0,1,10.456,160.883Zm.961,6.4a2.5,2.5,0,0,1-.6.656.912.912,0,0,1-.942.035,1.651,1.651,0,0,0-1.423,0,.915.915,0,0,1-1.238-.306,4.336,4.336,0,0,1-1.124-3.062,2.036,2.036,0,0,1,.681-1.537,1.581,1.581,0,0,1,1.7-.309c.681.258.525.248,1.2,0a1.792,1.792,0,0,1,1.716.172,3.808,3.808,0,0,1,.42.382,1.558,1.558,0,0,0-.8,1.493,1.621,1.621,0,0,0,.961,1.378,3.969,3.969,0,0,1-.551,1.1Zm6.044-3.867a1.954,1.954,0,0,1-1.744,1.741,4.03,4.03,0,0,1-1.34,0v2.635h-.713c0-.045-.006-.092-.006-.14q0-3.051,0-6.1c0-.108.032-.156.14-.162.532-.032,1.06-.092,1.591-.092a2.293,2.293,0,0,1,1.426.43A1.76,1.76,0,0,1,17.461,163.417Zm3.119,4.373c-.025-.191-.051-.382-.076-.56-.137.124-.261.251-.4.36a1.718,1.718,0,0,1-1.872.07,1.354,1.354,0,0,1-.465-1.55,1.614,1.614,0,0,1,1.114-1.015,4.167,4.167,0,0,1,1.413-.2c.127,0,.172-.038.153-.162a3.773,3.773,0,0,0-.045-.376.921.921,0,0,0-1.028-.726,2.276,2.276,0,0,0-1.181.309c-.051-.146-.105-.277-.143-.417-.01-.032.032-.1.067-.118a2.522,2.522,0,0,1,1.267-.334,2,2,0,0,1,1,.188,1.43,1.43,0,0,1,.738,1.162,5.493,5.493,0,0,1,.035.646l.025,2.314c0,.134.022.267.035.407C21,167.79,20.8,167.79,20.58,167.79Zm4.774-3.616c-.382,1-.758,2-1.149,2.989a8.066,8.066,0,0,1-.863,1.741,2.491,2.491,0,0,1-1.292.993c-.022.006-.041.01-.08.019-.067-.2-.13-.392-.194-.586.181-.105.366-.2.528-.312a2.55,2.55,0,0,0,.948-1.235.489.489,0,0,0-.022-.321q-.816-2.12-1.642-4.233c-.006-.016-.013-.035-.025-.073h.541c.242,0,.245,0,.328.226.35.955.7,1.91,1.05,2.868.08.22.137.446.21.694a.527.527,0,0,0,.051-.08q.592-1.786,1.178-3.568c.035-.108.083-.15.2-.143.2.01.395,0,.621,0-.134.356-.258.688-.385,1.018Zm-9.367-2.183a2.486,2.486,0,0,0-.917-.15c-.2.019-.395.045-.592.06-.083.006-.105.045-.105.121,0,.815,0,1.633,0,2.448a.1.1,0,0,0,.1.115,3.157,3.157,0,0,0,1.009.025,1.363,1.363,0,0,0,1.276-1.321A1.241,1.241,0,0,0,15.988,161.991Zm4,3.409a2.3,2.3,0,0,0-1.146.306.932.932,0,0,0-.086,1.493.864.864,0,0,0,.592.14,1.154,1.154,0,0,0,1.095-.977c.022-.312,0-.63,0-.961C20.281,165.4,20.135,165.39,19.988,165.4Z" transform="translate(0 -154.4)" fill="#343f4c"/>
</svg>
