<svg xmlns="http://www.w3.org/2000/svg" width="31.829" height="22" viewBox="0 0 31.829 22">
  <path id="discover-alt" d="M26.949,154.4H4.879A4.892,4.892,0,0,0,0,159.276v12.245A4.894,4.894,0,0,0,4.879,176.4h22.07a4.894,4.894,0,0,0,4.879-4.879V159.276A4.892,4.892,0,0,0,26.949,154.4Zm-1.515,8.135h1.152a1.561,1.561,0,0,1,1.034.309,1.076,1.076,0,0,1,.369.869,1.033,1.033,0,0,1-.9,1.117l1.248,1.665h-.952l-1.069-1.582H26.2v1.582h-.773v-3.959Zm-2.7,0h2.187v.678H23.512v.878h1.365v.665H23.512v1.069h1.413v.665H22.738Zm-3.317,0,1.057,2.661,1.069-2.661h.843L20.679,166.6h-.417l-1.687-4.064Zm-4.185.532a2.152,2.152,0,1,1-.63,1.521A2.071,2.071,0,0,1,15.236,163.067Zm-3.329-.016a2.045,2.045,0,0,1,1.493-.6,2.106,2.106,0,0,1,.952.239v.913a1.347,1.347,0,0,0-.961-.452,1.212,1.212,0,0,0-.92.4,1.367,1.367,0,0,0-.376.968,1.347,1.347,0,0,0,.376.98,1.273,1.273,0,0,0,.958.385,1.305,1.305,0,0,0,.926-.439v.913a2.185,2.185,0,0,1-.961.226,2.031,2.031,0,0,1-1.486-.6,1.984,1.984,0,0,1-.6-1.467,1.949,1.949,0,0,1,.6-1.461Zm-1.884,1.872a2.605,2.605,0,0,0-.535-.226,1.823,1.823,0,0,1-.761-.433.96.96,0,0,1-.213-.659,1.038,1.038,0,0,1,.356-.8,1.263,1.263,0,0,1,.878-.328,1.68,1.68,0,0,1,1.165.439l-.4.522a.84.84,0,0,0-.63-.321.656.656,0,0,0-.411.124.378.378,0,0,0-.159.315.347.347,0,0,0,.124.274,1.581,1.581,0,0,0,.468.226,2.353,2.353,0,0,1,.9.5,1.041,1.041,0,0,1,.245.735,1.254,1.254,0,0,1-.379.945,1.372,1.372,0,0,1-.987.363,1.589,1.589,0,0,1-1.365-.761l.5-.474a.892.892,0,0,0,.843.522.589.589,0,0,0,.427-.159.529.529,0,0,0,.166-.4.457.457,0,0,0-.226-.4ZM6.172,166.04a2.11,2.11,0,0,1-1.413.452H3.628v-3.956h1.13a2.162,2.162,0,0,1,1.534.554,1.875,1.875,0,0,1,.6,1.432A1.918,1.918,0,0,1,6.172,166.04Zm1.069-3.5h.773v3.956H7.241Zm23.493,8a4.894,4.894,0,0,1-4.879,4.879H7.629c19.988-.789,23.1-9.24,23.1-9.24v4.361ZM4.606,163.213h-.2v2.613h.2a1.541,1.541,0,0,0,1.057-.309,1.291,1.291,0,0,0,.427-1,1.243,1.243,0,0,0-.427-.987A1.488,1.488,0,0,0,4.606,163.213Zm22.589.535c0-.388-.248-.583-.748-.583h-.239v1.2h.226C26.94,164.366,27.194,164.159,27.194,163.748Z" transform="translate(0 -154.4)" fill="#343f4c"/>
</svg>
