<svg id="instagram_1_" data-name="instagram (1)" xmlns="http://www.w3.org/2000/svg" xmlns:xlink="http://www.w3.org/1999/xlink" width="22" height="22" viewBox="0 0 22 22">
  <defs>
    <radialGradient id="radial-gradient" cx="0.205" cy="0.874" r="1.103" gradientTransform="translate(0)" gradientUnits="objectBoundingBox">
      <stop offset="0" stop-color="#fae100"/>
      <stop offset="0.054" stop-color="#fadc04"/>
      <stop offset="0.117" stop-color="#fbce0e"/>
      <stop offset="0.183" stop-color="#fcb720"/>
      <stop offset="0.251" stop-color="#fe9838"/>
      <stop offset="0.305" stop-color="#ff7950"/>
      <stop offset="0.492" stop-color="#ff1c74"/>
      <stop offset="1" stop-color="#6c1cd1"/>
    </radialGradient>
    <linearGradient id="linear-gradient" x1="0.369" y1="0.426" x2="-1.54" y2="-0.648" gradientUnits="objectBoundingBox">
      <stop offset="0" stop-color="#a1b5d8" stop-opacity="0"/>
      <stop offset="0.309" stop-color="#90a2bd" stop-opacity="0.31"/>
      <stop offset="0.755" stop-color="#7c8b9c" stop-opacity="0.757"/>
      <stop offset="1" stop-color="#748290"/>
    </linearGradient>
    <linearGradient id="linear-gradient-2" x1="0.5" y1="0.413" x2="0.5" y2="1.193" gradientUnits="objectBoundingBox">
      <stop offset="0" stop-color="#fae100" stop-opacity="0"/>
      <stop offset="0.307" stop-color="#fca800" stop-opacity="0.306"/>
      <stop offset="0.627" stop-color="#fe7300" stop-opacity="0.627"/>
      <stop offset="0.868" stop-color="#ff5200" stop-opacity="0.867"/>
      <stop offset="1" stop-color="#ff4500"/>
    </linearGradient>
    <linearGradient id="linear-gradient-3" x1="0.316" y1="0.311" x2="0.012" y2="0.005" gradientUnits="objectBoundingBox">
      <stop offset="0" stop-color="#833ab4" stop-opacity="0"/>
      <stop offset="1" stop-color="#833ab4"/>
    </linearGradient>
    <linearGradient id="linear-gradient-4" x1="0.582" y1="0.887" x2="0.418" y2="0.113" xlink:href="#linear-gradient-3"/>
    <linearGradient id="linear-gradient-5" x1="0.605" y1="0.605" x2="-0.16" y2="-0.16" xlink:href="#linear-gradient-3"/>
    <linearGradient id="linear-gradient-6" x1="0.376" y1="0.332" x2="-0.072" y2="-0.063" xlink:href="#linear-gradient-3"/>
    <linearGradient id="linear-gradient-7" x1="0.816" y1="0.182" x2="0.172" y2="0.835" gradientUnits="objectBoundingBox">
      <stop offset="0" stop-color="#833ab4"/>
      <stop offset="0.092" stop-color="#9c3495"/>
      <stop offset="0.293" stop-color="#dc2546"/>
      <stop offset="0.392" stop-color="#fd1d1d"/>
      <stop offset="0.559" stop-color="#fc6831"/>
      <stop offset="0.689" stop-color="#fc9b40"/>
      <stop offset="0.752" stop-color="#fcaf45"/>
      <stop offset="0.781" stop-color="#fdb750"/>
      <stop offset="0.866" stop-color="#fecb6a"/>
      <stop offset="0.942" stop-color="#ffd87a"/>
      <stop offset="1" stop-color="#ffdc80"/>
    </linearGradient>
  </defs>
  <path id="Path_9411" data-name="Path 9411" d="M21.623,3.935A4.006,4.006,0,0,0,18.064.377a66.447,66.447,0,0,0-14.13,0A4.006,4.006,0,0,0,.376,3.935a66.448,66.448,0,0,0,0,14.13,4.006,4.006,0,0,0,3.558,3.559,66.449,66.449,0,0,0,14.13,0,4.006,4.006,0,0,0,3.558-3.559,66.448,66.448,0,0,0,0-14.13Zm0,0" transform="translate(0 0)" fill="url(#radial-gradient)"/>
  <path id="Path_9412" data-name="Path 9412" d="M48.022,32.326a3.555,3.555,0,0,0-3.158-3.158,58.986,58.986,0,0,0-12.538,0,3.555,3.555,0,0,0-3.158,3.158,58.986,58.986,0,0,0,0,12.538,3.555,3.555,0,0,0,3.158,3.158,58.963,58.963,0,0,0,12.538,0,3.554,3.554,0,0,0,3.158-3.158,58.964,58.964,0,0,0,0-12.538Zm0,0" transform="translate(-27.595 -27.595)" fill="url(#linear-gradient)"/>
  <path id="Path_9413" data-name="Path 9413" d="M7.672,409.8q.023.228.047.456a4.006,4.006,0,0,0,3.558,3.558,66.447,66.447,0,0,0,14.13,0,4.006,4.006,0,0,0,3.558-3.558q.024-.228.047-.456Zm0,0" transform="translate(-7.342 -392.196)" fill="url(#linear-gradient-2)"/>
  <path id="Path_9414" data-name="Path 9414" d="M112.627,111.2a66.505,66.505,0,0,0,.374-7.593l-5.029-5.029a3.6,3.6,0,0,0-2.624-1.2c-2.217-.08-4.442-.076-6.66,0a3.559,3.559,0,0,0-3.46,3.121c-.058.321-.093.647-.139.97V106.8c.025.173.063.345.074.519a3.878,3.878,0,0,0,1.257,2.7l5.117,5.117a66.507,66.507,0,0,0,7.531-.375,4.006,4.006,0,0,0,3.558-3.559Zm0,0" transform="translate(-91.004 -93.136)" fill="url(#linear-gradient-3)"/>
  <path id="Path_9415" data-name="Path 9415" d="M142.452,139.384a4.006,4.006,0,0,1-3.558,3.558,66.543,66.543,0,0,1-7.53.375l-5.11-5.11a3.583,3.583,0,0,0,2.26.868c2.217.083,4.442.081,6.659,0a3.564,3.564,0,0,0,3.519-3.562c.067-2.129.067-4.264,0-6.393a3.712,3.712,0,0,0-.892-2.355l5.025,5.025a66.625,66.625,0,0,1-.374,7.593Zm0,0" transform="translate(-120.829 -121.319)" fill="url(#linear-gradient-4)"/>
  <path id="Path_9416" data-name="Path 9416" d="M180.112,175.134a3.523,3.523,0,1,0-4.978,4.978l8.153,8.153q.647-.056,1.294-.125a4.006,4.006,0,0,0,3.558-3.559q.069-.647.125-1.294Zm0,0" transform="translate(-166.516 -166.516)" fill="url(#linear-gradient-5)"/>
  <path id="Path_9417" data-name="Path 9417" d="M331.352,157.635l-6.561-6.561a.838.838,0,1,0-1.173,1.173l7.617,7.618q.078-1.115.117-2.23Zm0,0" transform="translate(-309.394 -144.265)" fill="url(#linear-gradient-6)"/>
  <path id="Path_9418" data-name="Path 9418" d="M95.09,101.467c.046-.324.081-.649.139-.97a3.559,3.559,0,0,1,3.46-3.121c2.218-.076,4.442-.08,6.66,0a3.564,3.564,0,0,1,3.519,3.562q.1,3.194,0,6.394a3.563,3.563,0,0,1-3.519,3.562c-2.217.08-4.442.082-6.66,0a3.625,3.625,0,0,1-3.525-3.572c-.012-.174-.049-.346-.074-.519v-5.334Zm6.916,8.237c1.015,0,2.031.03,3.044-.007a2.476,2.476,0,0,0,2.6-2.595q.069-2.967,0-5.937a2.46,2.46,0,0,0-2.6-2.591q-3.024-.064-6.05,0a2.446,2.446,0,0,0-2.6,2.554q-.082,3,0,6.013A2.462,2.462,0,0,0,99,109.7c1,.037,2,.007,3.006.007Zm0,0" transform="translate(-91.004 -93.135)" fill="url(#linear-gradient-7)"/>
  <g id="Group_1868" data-name="Group 1868" transform="translate(4.086 4.182)">
    <path id="Path_9419" data-name="Path 9419" d="M95.09,101.467c.046-.324.081-.649.139-.97a3.559,3.559,0,0,1,3.46-3.121c2.218-.076,4.442-.08,6.66,0a3.564,3.564,0,0,1,3.519,3.562q.1,3.194,0,6.394a3.563,3.563,0,0,1-3.519,3.562c-2.217.08-4.442.082-6.66,0a3.625,3.625,0,0,1-3.525-3.572c-.012-.174-.049-.346-.074-.519v-5.334Zm6.916,8.237c1.015,0,2.031.03,3.044-.007a2.476,2.476,0,0,0,2.6-2.595q.069-2.967,0-5.937a2.46,2.46,0,0,0-2.6-2.591q-3.024-.064-6.05,0a2.446,2.446,0,0,0-2.6,2.554q-.082,3,0,6.013A2.462,2.462,0,0,0,99,109.7c1,.037,2,.007,3.006.007Zm0,0" transform="translate(-95.09 -97.317)" fill="#fff"/>
    <path id="Path_9420" data-name="Path 9420" d="M177.516,174a3.524,3.524,0,1,0,3.524,3.524A3.524,3.524,0,0,0,177.516,174Zm0,5.834a2.311,2.311,0,1,1,2.311-2.311A2.311,2.311,0,0,1,177.516,179.83Zm0,0" transform="translate(-170.602 -170.701)" fill="#fff"/>
    <path id="Path_9421" data-name="Path 9421" d="M324.962,151.581a.838.838,0,1,1-.838-.838A.838.838,0,0,1,324.962,151.581Zm0,0" transform="translate(-313.48 -148.447)" fill="#fff"/>
  </g>
</svg>
