<svg xmlns="http://www.w3.org/2000/svg" width="31.829" height="22" viewBox="0 0 31.829 22">
  <path id="mastercard-alt" d="M26.949,154.4H4.879A4.892,4.892,0,0,0,0,159.276v12.245A4.894,4.894,0,0,0,4.879,176.4h22.07a4.894,4.894,0,0,0,4.879-4.879V159.276A4.892,4.892,0,0,0,26.949,154.4Zm-3.909,14.145a5.023,5.023,0,0,1-6.827.43,5.475,5.475,0,0,0,1.429-2.333c-.127,0-.245-.006-.36,0a.121.121,0,0,0-.076.076,4.978,4.978,0,0,1-.853,1.521c-.137.166-.29.321-.439.487a3.89,3.89,0,0,1-.742-.888c-.2-.35-.369-.719-.541-1.082-.038-.083-.07-.13-.169-.121a2.731,2.731,0,0,1-.283,0,5.451,5.451,0,0,0,1.413,2.33,5.028,5.028,0,1,1,0-7.8,5.446,5.446,0,0,0-1.416,2.33c.13,0,.248.006.363,0,.029,0,.067-.054.08-.092a5,5,0,0,1,.958-1.646c.1-.115.21-.223.321-.341a4.074,4.074,0,0,1,.805.984c.181.321.328.662.484,1,.032.07.06.108.143.1s.191,0,.306,0a5.408,5.408,0,0,0-1.426-2.33,5.034,5.034,0,0,1,6.827,7.372ZM9.918,164a.161.161,0,0,0-.175.118c-.162.369-.331.738-.5,1.1-.013.025-.029.051-.057.1-.035-.462-.067-.888-.1-1.315H8.266c-.143.748-.286,1.49-.433,2.234h.512c.1-.509.194-1.012.293-1.515a.04.04,0,0,1,.019,0c.045.506.086,1.009.13,1.521.14,0,.264,0,.388,0a.125.125,0,0,0,.14-.089c.172-.395.347-.783.522-1.174.025-.057.054-.115.083-.172-.022.245-.067.481-.111.719s-.086.471-.134.713h.532c.14-.748.28-1.49.42-2.244L9.918,164Zm2.257,1.1c.029-.407-.115-.656-.462-.694a5.5,5.5,0,0,0-.885.022c-.029,0-.067.048-.076.083-.025.105-.041.213-.06.325.248-.013.481-.029.713-.038a.256.256,0,0,1,.166.035.241.241,0,0,1,.064.159c0,.013-.073.048-.115.051-.092.01-.185,0-.277.006a.782.782,0,0,0-.786.608.464.464,0,0,0,.4.592,3.66,3.66,0,0,0,.573-.038c.14.118.334.013.519.048.073-.369.143-.719.213-1.069A.462.462,0,0,0,12.174,165.1Zm-1.022.751c-.172-.01-.236-.14-.14-.286a.453.453,0,0,1,.532-.14c-.006.35-.2.439-.391.427Zm1.9-.758c-.083-.041-.178-.086-.153-.2s.137-.1.226-.1c.124,0,.248,0,.385,0,.032-.1.067-.223.105-.35a1.367,1.367,0,0,0-.828-.032.545.545,0,0,0-.468.646.348.348,0,0,0,.2.309c.124.06.245.124.366.188.076.038.134.1.108.188s-.1.108-.178.105l-.637-.019c-.019.108-.041.226-.067.363a2.189,2.189,0,0,0,.929.032.7.7,0,0,0,.28-.124.527.527,0,0,0-.035-.872A2.393,2.393,0,0,0,13.053,165.094Zm1.579-.538c.01-.045.016-.089.025-.143-.086,0-.169-.01-.261-.013.032-.162.06-.315.1-.484h-.207c-.3,0-.3,0-.36.293-.105.509-.2,1.022-.3,1.531a.4.4,0,0,0,.293.5,1.546,1.546,0,0,0,.417-.032.13.13,0,0,0,.083-.089,2.681,2.681,0,0,0,.029-.321c-.06,0-.1,0-.143,0-.089-.013-.156-.061-.14-.156.045-.274.1-.544.146-.812C14.574,164.8,14.574,164.8,14.632,164.557Zm.748,1.264a.279.279,0,0,1-.28-.4h1.117c0-.172.006-.331,0-.487a.5.5,0,0,0-.3-.468.972.972,0,0,0-.945.06,1.115,1.115,0,0,0-.42,1.06.725.725,0,0,0,.535.63,1.785,1.785,0,0,0,.878-.016.145.145,0,0,0,.083-.073c.029-.105.048-.216.073-.331a.53.53,0,0,1-.06,0c-.226.006-.452.025-.675.022Zm.181-1.073c.14.022.194.118.169.337h-.614A.377.377,0,0,1,15.561,164.748Zm1.445-.166c.025-.213-.115-.172-.229-.175a.689.689,0,0,0-.162,0,.144.144,0,0,0-.1.08c-.111.579-.22,1.162-.331,1.763H16.4c.3,0,.3,0,.356-.3a.4.4,0,0,1,.01-.06c.06-.242.105-.487.181-.726a.377.377,0,0,1,.363-.277.091.091,0,0,0,.07-.051c.041-.14.076-.28.115-.43A.645.645,0,0,0,17.006,164.582Zm1.922-.086a.121.121,0,0,0,.1-.01c.105-.086.2-.181.3-.271a.524.524,0,0,0-.041-.06.977.977,0,0,0-1.178-.134,1.365,1.365,0,0,0-.691,1.356.85.85,0,0,0,.487.777,1.249,1.249,0,0,0,1.034-.016c-.054-.162-.1-.306-.15-.458l-.137.032a.514.514,0,0,1-.643-.293.745.745,0,0,1,.181-.786A.634.634,0,0,1,18.929,164.5Zm1.276-.1a4.772,4.772,0,0,0-.8.035.1.1,0,0,0-.07.057c-.025.115-.045.232-.067.36l.115-.013c.22-.013.442-.035.662-.035.15,0,.2.089.143.248-.118,0-.239-.006-.36,0a.786.786,0,0,0-.793.589.467.467,0,0,0,.414.614,3.009,3.009,0,0,0,.551-.045c.143.115.337.013.528.06.076-.417.175-.815.216-1.216A.523.523,0,0,0,20.2,164.394Zm-.474,1.455a.227.227,0,0,1-.162-.086.246.246,0,0,1,.025-.194.42.42,0,0,1,.528-.134C20.113,165.779,19.928,165.865,19.731,165.849Zm2.311-1.451a.625.625,0,0,0-.468.14c-.035-.051-.064-.134-.1-.14a3.473,3.473,0,0,0-.407-.006l-.347,1.862c.166,0,.306,0,.446,0a.128.128,0,0,0,.086-.076c.025-.1.035-.2.057-.306.054-.239.1-.481.178-.713a.389.389,0,0,1,.36-.286.1.1,0,0,0,.07-.048c.051-.137.086-.277.127-.423Zm-.127.929a.927.927,0,0,0,.121.64.519.519,0,0,0,.684.242c.067-.022.13-.054.181-.076.048.045.089.115.134.118.166.013.331.006.5.006l.439-2.359h-.538c-.045.226-.089.449-.134.681-.092-.064-.166-.15-.255-.169a.819.819,0,0,0-.847.229A1.425,1.425,0,0,0,21.914,165.327Zm.818-.452a.248.248,0,0,1,.414.194c0,.032.006.067.006.073a.647.647,0,0,1-.21.516.28.28,0,0,1-.481-.153A.657.657,0,0,1,22.732,164.875Z" transform="translate(0 -154.4)" fill="#343f4c"/>
</svg>
