<svg xmlns="http://www.w3.org/2000/svg" width="31.829" height="22" viewBox="0 0 31.829 22">
  <path id="paypal-alt" d="M26.949,154.4H4.879A4.892,4.892,0,0,0,0,159.276v12.245A4.894,4.894,0,0,0,4.879,176.4h22.07a4.894,4.894,0,0,0,4.879-4.879V159.276A4.892,4.892,0,0,0,26.949,154.4ZM8.568,165.04a2.941,2.941,0,0,1-1.089.315,6.233,6.233,0,0,1-.691.029.338.338,0,0,0-.356.293c-.07.309-.143.614-.213.92a.333.333,0,0,1-.315.251c-.216,0-.433,0-.646,0a.192.192,0,0,1-.2-.251l.525-2.288.385-1.671a.338.338,0,0,1,.341-.274h.9c.226,0,.509-.01.793.013a2.238,2.238,0,0,1,.885.207,1,1,0,0,1,.56.828,1.615,1.615,0,0,1-.118.84A1.677,1.677,0,0,1,8.568,165.04Zm4.115.1c-.108.487-.223.971-.337,1.458a.336.336,0,0,1-.325.264c-.172,0-.344,0-.516,0-.188,0-.267-.1-.223-.286,0-.019.006-.041.013-.076-.089.057-.162.108-.239.156a1.7,1.7,0,0,1-1.209.286.844.844,0,0,1-.745-.917,1.123,1.123,0,0,1,.366-.805,1.733,1.733,0,0,1,.6-.328,4.017,4.017,0,0,1,.777-.165c.261-.035.519-.064.78-.076.083,0,.105-.038.111-.118a.313.313,0,0,0-.264-.356,2.007,2.007,0,0,0-.754-.045,3.487,3.487,0,0,0-.742.172c-.124.045-.185-.01-.156-.14s.057-.274.1-.407a.355.355,0,0,1,.293-.261,5.363,5.363,0,0,1,1.353-.111,2.354,2.354,0,0,1,.834.162.721.721,0,0,1,.452.751A5.447,5.447,0,0,1,12.684,165.136Zm3.9-.812c-.226.376-.446.751-.668,1.127l-.955,1.614c-.207.353-.417.7-.624,1.06a.646.646,0,0,1-.232.248.448.448,0,0,1-.239.064c-.1,0-.207,0-.309,0h-.353a.118.118,0,0,1-.124-.172,2.193,2.193,0,0,1,.185-.341c.134-.242.274-.477.411-.719a.452.452,0,0,0,.029-.3c-.064-.5-.156-1-.242-1.493-.1-.579-.2-1.155-.3-1.735a.2.2,0,0,1,.21-.255h.516a.368.368,0,0,1,.427.366l.264,1.614c.006.032.013.064.051.07s.054-.025.07-.051l.872-1.5.13-.223a.534.534,0,0,1,.5-.283c.226.006.452,0,.678,0,.146,0,.146.067.118.166a1.138,1.138,0,0,1-.146.283C16.755,164.019,16.678,164.175,16.586,164.324Zm3.829.729a3.044,3.044,0,0,1-1.356.341c-.156.01-.309.01-.465.01a.323.323,0,0,0-.312.245c-.073.312-.143.627-.216.942a.338.338,0,0,1-.347.277h-.6c-.175,0-.261-.1-.22-.271l.267-1.162c.191-.831.382-1.658.57-2.489.022-.105.048-.207.073-.312a.338.338,0,0,1,.331-.258h.968a8.6,8.6,0,0,1,.869.022,1.83,1.83,0,0,1,.863.258,1,1,0,0,1,.458.815,1.577,1.577,0,0,1-.885,1.582Zm4.115.076c-.108.484-.223.971-.337,1.455a.339.339,0,0,1-.344.28h-.5c-.188,0-.267-.1-.229-.283a.128.128,0,0,0,.006-.073c-.089.057-.172.115-.255.169a1.664,1.664,0,0,1-1.216.261.85.85,0,0,1-.71-.974,1.193,1.193,0,0,1,.843-1.025,3.825,3.825,0,0,1,.92-.213c.255-.032.512-.06.767-.076a.1.1,0,0,0,.105-.108.322.322,0,0,0-.274-.363,2.141,2.141,0,0,0-.805-.035,3.376,3.376,0,0,0-.681.165c-.124.045-.185-.006-.162-.137a3.338,3.338,0,0,1,.105-.426.41.41,0,0,1,.36-.264,5.486,5.486,0,0,1,1.426-.086,2.289,2.289,0,0,1,.6.118.736.736,0,0,1,.532.856A6.323,6.323,0,0,1,24.53,165.129Zm2.047-1.576-.5,2.247-.175.8a.334.334,0,0,1-.325.264c-.1,0-.188,0-.283,0h-.264a.2.2,0,0,1-.223-.274l.166-.742q.243-1.1.487-2.2c.07-.325.143-.649.216-.974a.328.328,0,0,1,.328-.258h.56a.188.188,0,0,1,.207.242c-.064.3-.134.6-.2.9Zm-6.923-.312a2.332,2.332,0,0,0-.576-.035.322.322,0,0,0-.293.245c-.067.286-.134.573-.2.863a.187.187,0,0,0,.134.223.916.916,0,0,0,.207.013,1.779,1.779,0,0,0,.522-.064.764.764,0,0,0,.611-.646.482.482,0,0,0-.407-.6Zm-11.773,0a1.442,1.442,0,0,0-.452-.051H7.273a.321.321,0,0,0-.321.248c-.067.28-.134.56-.2.84a.194.194,0,0,0,.185.255,2.031,2.031,0,0,0,.678-.064.775.775,0,0,0,.614-.691A.478.478,0,0,0,7.881,163.242Zm15.466,2.031c-.14.019-.28.029-.417.045a2.07,2.07,0,0,0-.5.115.487.487,0,0,0-.347.516.253.253,0,0,0,.172.245.913.913,0,0,0,.3.051,1.15,1.15,0,0,0,.576-.181.257.257,0,0,0,.137-.146c.051-.191.1-.385.14-.579C23.423,165.285,23.4,165.266,23.346,165.273Zm-11.84,0c-.111.016-.226.025-.337.038a2.487,2.487,0,0,0-.551.111.506.506,0,0,0-.382.506.257.257,0,0,0,.194.274.86.86,0,0,0,.283.041,1.164,1.164,0,0,0,.627-.21.213.213,0,0,0,.092-.124c.048-.191.1-.379.137-.573C11.579,165.279,11.56,165.263,11.506,165.27Z" transform="translate(0 -154.4)" fill="#343f4c"/>
</svg>
