<svg xmlns="http://www.w3.org/2000/svg" width="31.829" height="22" viewBox="0 0 31.829 22">
  <path id="visa-alt" d="M26.949,154.4H4.879A4.894,4.894,0,0,0,0,159.279v12.241A4.894,4.894,0,0,0,4.879,176.4h22.07a4.894,4.894,0,0,0,4.879-4.879V159.279A4.894,4.894,0,0,0,26.949,154.4ZM6.97,162.583c.723,0,1.448-.006,2.171.006a.822.822,0,0,1,.828.713c.153.735.3,1.47.43,2.215a5.783,5.783,0,0,0-3.5-2.906A.224.224,0,0,1,6.97,162.583Zm4.2,5.6q-.683,0-1.365,0c-.092,0-.156-.016-.181-.124-.376-1.442-.758-2.884-1.136-4.326a.239.239,0,0,1,0-.048c.255.032.764.452,1.334,1.171a3.8,3.8,0,0,1,.824,1.6l.054-.162q.611-1.79,1.219-3.581a.194.194,0,0,1,.22-.15c.414.006.831,0,1.245,0,.054,0,.108.006.185.01-.067.175-.124.331-.185.487q-1.007,2.492-2.012,4.988a.184.184,0,0,1-.2.134Zm4.386-4.9-.7,4.351c-.019.127-.057.251-.067.382s-.067.178-.2.175c-.382-.006-.764,0-1.146,0-.054,0-.108-.006-.185-.01.06-.372.115-.726.172-1.079l.493-3.157.2-1.245c.013-.086.041-.13.137-.13.439,0,.875,0,1.315,0a.66.66,0,0,1,.089.019C15.622,162.816,15.59,163.048,15.551,163.277Zm1.455,5.067a4.024,4.024,0,0,1-1.2-.242c-.086-.032-.153-.064-.127-.178.08-.353.153-.71.229-1.069.245.073.477.156.713.213a2.392,2.392,0,0,0,1.346-.01.442.442,0,0,0,.178-.78,3.011,3.011,0,0,0-.576-.369,2.9,2.9,0,0,1-1.025-.742,1.679,1.679,0,0,1-.045-1.8,1.91,1.91,0,0,1,1.108-.77,3.748,3.748,0,0,1,2.266.076c.124.041.169.089.137.226-.07.3-.118.6-.175.891-.01.054-.029.105-.045.172-.175-.08-.321-.146-.468-.21a1.69,1.69,0,0,0-1.152-.051.486.486,0,0,0-.385.382.4.4,0,0,0,.239.442c.283.169.582.312.863.49a2.9,2.9,0,0,1,.63.493,1.353,1.353,0,0,1-.086,1.852,2.957,2.957,0,0,1-2.429.977Zm6.955-.162c-.439-.01-.356.1-.458-.379-.029-.131-.051-.264-.083-.417-.6,0-1.187,0-1.776,0-.035,0-.089.057-.105.1-.08.185-.14.379-.223.563-.025.054-.1.124-.146.124-.439.01-.875,0-1.315,0a.215.215,0,0,1-.064-.022c.051-.124.1-.245.153-.366q.7-1.614,1.4-3.221c.271-.621.544-1.244.808-1.865a.189.189,0,0,1,.2-.14q.649.01,1.3,0c.115,0,.15.038.172.146.248,1.232.506,2.46.761,3.692.108.522.22,1.044.325,1.566.013.064.016.13.025.22-.337-.01-.656,0-.974-.01Zm-1.206-3.889c-.251.659-.5,1.321-.761,1.992h1.2c-.134-.672-.267-1.33-.4-1.986a.252.252,0,0,1-.045-.006Z" transform="translate(0 -154.4)" fill="#343f4c"/>
</svg>
